<?xml version="1.0" standalone="no"?>
<!DOCTYPE svg PUBLIC "-//W3C//DTD SVG 20010904//EN"
 "http://www.w3.org/TR/2001/REC-SVG-20010904/DTD/svg10.dtd">
<svg version="1.0" xmlns="http://www.w3.org/2000/svg"
 width="700.000000pt" height="700.000000pt" viewBox="0 0 700.000000 700.000000"
 preserveAspectRatio="xMidYMid meet">
<metadata>
Created by potrace 1.14, written by Peter Selinger 2001-2017
</metadata>
<g transform="translate(0.000000,700.000000) scale(0.100000,-0.100000)"
fill="#000000" stroke="none">
<path d="M2608 5565 c-2 -3 -40 -7 -84 -9 -138 -9 -262 -36 -344 -74 -109 -50
-193 -145 -229 -257 -38 -116 -41 -170 -46 -685 -2 -239 -6 -448 -9 -465 -43
-214 -108 -312 -242 -362 -84 -32 -105 -35 -239 -39 l-120 -4 -3 -160 -2 -160
97 -1 c54 0 107 -2 118 -5 11 -2 34 -6 50 -8 135 -21 249 -106 293 -217 50
-129 54 -176 58 -639 3 -415 6 -524 19 -580 3 -14 7 -40 10 -59 7 -51 68 -170
111 -215 20 -21 69 -56 108 -76 63 -33 87 -42 146 -57 31 -8 98 -17 193 -28
37 -4 251 -8 300 -6 16 1 17 14 15 163 l-3 162 -100 2 c-156 4 -226 19 -303
68 -45 28 -78 85 -101 172 -12 47 -23 156 -21 204 2 42 2 47 -3 83 -2 15 -1
27 2 27 4 0 7 9 7 20 0 11 -3 20 -6 20 -7 0 -4 95 4 115 3 8 2 15 -2 15 -4 0
-7 16 -7 35 0 19 2 35 5 35 3 0 6 9 6 20 0 11 -3 20 -6 20 -7 0 -4 95 4 115 3
8 2 15 -2 15 -4 0 -7 16 -7 35 0 19 4 35 8 35 5 0 5 5 1 11 -3 6 -7 45 -9 87
-5 124 -21 214 -56 308 -12 32 -27 64 -33 71 -42 52 -94 103 -104 103 -7 0
-12 3 -12 8 0 9 -65 45 -76 42 -4 -1 -10 2 -13 7 -3 5 -35 18 -70 30 l-64 20
39 12 c83 26 183 83 235 135 74 72 73 72 107 172 35 102 45 175 46 326 1 60 3
108 6 108 3 0 6 9 6 20 0 11 -3 20 -6 20 -7 0 -4 95 4 115 3 8 2 15 -2 15 -4
0 -7 16 -7 35 0 19 2 35 5 35 3 0 6 9 6 20 0 11 -3 20 -6 20 -7 0 -4 95 4 115
3 8 2 15 -2 15 -4 0 -7 16 -7 35 0 19 4 35 8 35 5 0 6 4 3 8 -10 17 -6 138 8
207 10 48 29 111 37 121 5 6 6 14 2 17 -3 4 -1 7 5 7 7 0 12 6 12 14 0 26 101
91 156 100 16 2 29 5 29 6 0 4 79 10 170 13 l100 3 3 162 c1 89 -1 162 -5 163
-33 5 -127 3 -135 -3 -6 -3 -21 -2 -34 2 -12 5 -24 7 -26 5z"/>
<path d="M4184 5555 c-3 -6 -3 -80 -2 -165 l3 -154 100 -3 c96 -3 170 -9 170
-13 0 -1 10 -3 23 -6 38 -7 105 -41 134 -67 35 -32 52 -68 72 -149 23 -91 24
-128 27 -584 1 -220 4 -403 7 -409 3 -5 7 -25 9 -45 6 -54 32 -148 56 -199 43
-93 152 -180 294 -232 l55 -21 -84 -32 c-146 -55 -233 -134 -282 -258 -14 -37
-26 -71 -25 -75 1 -4 0 -10 -1 -13 -7 -18 -21 -118 -25 -179 -2 -25 -4 -219
-5 -431 -1 -398 -7 -462 -47 -568 -43 -113 -155 -162 -383 -166 l-95 -2 -3
-162 c-2 -126 0 -162 10 -163 47 -2 253 2 298 6 84 9 183 22 188 25 1 2 5 3
10 4 4 1 23 6 42 10 56 14 161 74 208 119 64 62 115 176 127 284 3 21 7 63 11
93 3 30 7 251 9 490 1 270 7 455 14 488 26 127 66 207 132 266 33 31 91 65
119 71 3 0 14 4 25 8 44 14 85 19 202 24 l121 5 0 152 c-1 83 -2 156 -4 161
-3 6 -47 9 -111 8 -58 -1 -111 1 -117 5 -6 3 -20 7 -31 7 -31 2 -96 22 -140
45 -46 23 -125 97 -125 117 0 7 -4 13 -8 13 -11 0 -49 108 -63 180 -7 34 -13
216 -14 480 -4 551 -10 624 -60 744 -8 20 -16 39 -17 43 -3 11 -47 62 -88 102
-79 76 -279 142 -442 145 -27 1 -48 3 -48 6 0 3 -16 5 -35 5 -19 0 -35 -4 -35
-8 0 -5 -5 -5 -12 -1 -19 12 -160 11 -164 -1z"/>
<path d="M3034 4352 l-271 -2 1 -68 c1 -37 -2 -77 -6 -89 -4 -13 -4 -23 0 -23
4 0 6 -19 5 -42 -2 -24 -5 -153 -7 -288 -6 -343 -26 -767 -41 -890 -2 -19 -7
-78 -10 -130 -4 -52 -8 -108 -10 -125 -1 -16 -6 -66 -10 -110 -4 -44 -9 -83
-11 -86 -2 -3 8 -11 21 -17 18 -8 25 -9 25 -1 0 8 4 8 13 0 8 -6 17 -8 20 -4
9 9 327 11 353 2 12 -4 25 -5 28 -1 9 9 77 9 82 0 3 -5 13 -4 23 2 16 8 18 22
17 95 0 47 1 85 4 85 3 0 5 82 6 183 1 270 28 1007 39 1064 2 10 4 26 4 35 1
13 9 17 37 14 19 -1 37 0 39 3 3 5 240 6 240 1 0 -1 21 -4 47 -6 158 -15 233
-136 170 -276 -10 -24 -32 -56 -48 -72 -33 -32 -98 -68 -108 -59 -3 4 -6 2 -6
-3 0 -5 -8 -10 -17 -11 -10 0 -29 -4 -43 -7 -34 -9 -167 -10 -208 -2 -34 7
-34 7 -27 -26 4 -18 10 -37 14 -43 4 -5 18 -41 31 -80 12 -38 27 -75 32 -81 5
-7 8 -16 7 -20 -1 -5 2 -18 6 -29 19 -47 47 -121 50 -130 1 -5 5 -17 8 -25 30
-81 59 -162 61 -173 2 -6 8 -25 15 -41 11 -27 68 -210 76 -246 2 -8 13 -46 25
-83 l21 -69 44 5 c24 2 49 -1 55 -7 5 -5 10 -6 10 0 0 5 16 9 35 9 19 0 35 -4
35 -10 0 -7 3 -7 8 0 8 12 312 14 312 2 0 -5 5 -5 12 -1 15 10 58 12 63 3 3
-3 16 -4 29 -2 l24 5 -33 77 c-18 42 -43 99 -56 126 -13 28 -24 52 -24 55 -1
3 -16 37 -34 75 -18 39 -44 95 -58 125 -13 30 -33 73 -43 95 -54 116 -112 267
-105 274 4 3 10 6 13 6 21 2 52 18 52 27 0 6 3 9 6 5 20 -20 203 108 252 177
146 203 136 503 -22 661 -41 41 -139 107 -165 111 -3 0 -13 3 -21 7 -128 50
-287 57 -1086 49z"/>
</g>
</svg>
