<svg width="610" height="615" viewBox="0 0 610 615" fill="none" xmlns="http://www.w3.org/2000/svg">
<g clip-path="url(#clip0_28_2)">
<path d="M160.211 531.216L170.172 536.195C210.787 560.347 257.22 572.971 304.476 572.709C449.954 572.377 569.484 452.595 569.484 307.153C569.484 236.864 541.56 169.363 491.906 119.604C442.317 69.3315 374.568 41 303.962 41C159.148 41 40 160.135 40 304.896C40 306.042 40 307.17 40.0166 308.315C40.4528 357.533 54.222 405.713 79.8601 447.732L86.5003 457.69L59.9384 555.614L160.211 531.216Z" fill="#00E676"/>
<path d="M521.781 89.6294C465.253 31.9702 387.707 -0.377274 306.959 0.00332092H306.444C140.149 0.00384086 3.30399 136.815 3.30399 303.07C3.30399 303.849 3.32064 304.613 3.32064 305.394C3.94701 358.252 17.6342 410.136 43.1641 456.428L0 614.102L160.868 572.608C205.307 597 255.268 609.573 305.963 609.123C472.873 608.21 609.702 470.619 609.602 303.733C610 223.552 578.375 146.442 521.781 89.6294ZM306.959 557.671C262.022 557.905 217.876 545.853 179.295 522.817L169.334 517.838L73.5439 542.734L98.4458 448.129L91.8056 438.171C67.1392 398.353 54.0711 352.445 54.0705 305.609C54.0705 167.487 167.757 53.8284 305.914 53.8284C444.07 53.8284 557.756 167.487 557.756 305.609C557.756 392.579 512.683 473.606 438.774 519.497C399.684 544.531 354.211 557.784 307.789 557.671M453.715 373.442L435.454 365.144C435.454 365.144 408.891 353.525 392.29 345.227C390.63 345.227 388.97 343.567 387.309 343.567C383.217 343.668 379.217 344.81 375.688 346.886C372.153 348.961 374.028 348.546 350.787 375.101C349.21 378.205 345.972 380.147 342.486 380.081H340.826C338.33 379.663 336.017 378.507 334.185 376.762L325.885 373.442C308.074 365.903 291.766 355.222 277.74 341.907C274.42 338.588 269.44 335.268 266.119 331.949C253.83 320.178 243.216 306.775 234.577 292.115L232.917 288.796C231.475 286.767 230.355 284.528 229.597 282.157C229.162 279.282 229.75 276.346 231.257 273.859C232.767 271.369 237.897 265.56 242.878 260.581C247.858 255.602 247.858 252.282 251.178 248.963C252.885 246.593 254.064 243.886 254.637 241.023C255.209 238.161 255.162 235.208 254.499 232.365C246.762 210.889 237.895 189.837 227.937 169.296C225.267 165.146 221.108 162.176 216.316 160.997H198.054C194.734 160.997 191.414 162.657 188.093 162.657L186.433 164.317C183.113 165.976 179.793 169.296 176.472 170.956C173.152 172.615 171.492 177.595 168.172 180.914C156.566 195.576 150.145 213.669 149.91 232.365C150.094 245.517 152.917 258.498 158.21 270.539L159.871 275.518C174.778 307.381 195.625 336.109 221.296 360.164L227.937 366.803C232.769 370.804 237.215 375.25 241.218 380.081C275.615 410.005 316.471 431.582 360.582 443.15C365.562 444.81 372.202 444.81 377.183 446.47H393.784C402.461 446.042 410.948 443.779 418.686 439.831C422.753 437.989 426.638 435.765 430.307 433.192L433.627 429.872C436.948 426.553 440.268 424.893 443.588 421.574C446.833 418.684 449.63 415.328 451.889 411.616C455.076 404.18 457.317 396.379 458.53 388.38V376.762C457.038 375.421 455.36 374.303 453.549 373.442" fill="white"/>
</g>
<defs>
<clipPath id="clip0_28_2">
<rect width="609.61" height="614.102" fill="white"/>
</clipPath>
</defs>
</svg>
