<?xml version="1.0" encoding="UTF-8"?>
<!DOCTYPE svg PUBLIC "-//W3C//DTD SVG 1.1//EN" "http://www.w3.org/Graphics/SVG/1.1/DTD/svg11.dtd">
<!-- Creator: CorelDRAW 2021.5 -->
<svg xmlns="http://www.w3.org/2000/svg" xml:space="preserve" width="210mm" height="210mm" version="1.1" style="shape-rendering:geometricPrecision; text-rendering:geometricPrecision; image-rendering:optimizeQuality; fill-rule:evenodd; clip-rule:evenodd"
viewBox="0 0 21000 21000"
 xmlns:xlink="http://www.w3.org/1999/xlink"
 xmlns:xodm="http://www.corel.com/coreldraw/odm/2003">
 <defs>
  <style type="text/css">
   <![CDATA[
    .str0 {stroke:#373435;stroke-width:20;stroke-miterlimit:22.9256}
    .fil1 {fill:none}
    .fil2 {fill:#54B952}
    .fil0 {fill:#428048}
   ]]>
  </style>
 </defs>
 <g id="Camada_x0020_1">
  <metadata id="CorelCorpID_0Corel-Layer"/>
  <path class="fil0" d="M17856.86 1594.83c-7757.5,49.82 -13964.73,3276.21 -14148.34,11797.73 -74.12,3440.28 -506.56,4943.74 -2015.29,6569.77 -16.61,-11.27 -34.04,-21.2 -52.11,-29.6 1469.31,-1633.34 1874.14,-3125.68 1891.07,-6538.98 43.25,-8718.1 6400.77,-12143.17 14324.67,-12325.51 145.42,0 263.3,117.87 263.3,263.3 0,145.42 -117.88,263.29 -263.3,263.29z"/>
  <path class="fil1" d="M17856.86 1331.54c-7644.56,0 -14293.74,3591.67 -14236.5,12061.62 22.44,3320.47 -479.94,4916.68 -1956,6551.41"/>
  <path class="fil0" d="M17963.38 1140.02c2455.38,3061.32 1369.45,6366.45 -805.1,9229.13 -1786.32,2351.57 -3677.9,3756.77 -6387.57,4973.29 -1742.43,782.29 -7021.52,2763.42 -9095.32,4607.9 -18.14,-10.79 -37.08,-20.05 -56.7,-27.49 1083.83,-1019.24 3044.57,-1952.19 3890.96,-2370.23 4387.31,-2167 7865.95,-2923.42 11053.54,-6979.96 2148.09,-2733.64 3486.45,-6104.82 1006.32,-9087.09 -96.15,-107.93 -85.94,-272.79 22.83,-368.2 108.76,-95.41 274.89,-85.28 371.04,22.65z"/>
  <g id="_1492975584080">
   <path class="fil0" d="M13844.09 4656.6c-2580.12,1015.41 -4014.63,3637.91 -4965.2,6101.81 836.17,-2661.58 2138.14,-5354.67 4782.32,-6595.63 136.36,-50.5 287.85,19.11 338.35,155.47 50.5,136.36 -19.11,287.84 -155.47,338.35z"/>
  </g>
  <path class="fil1" d="M13752.65 4409.69c-2456.9,909.97 -4085.2,3983.18 -4873.76,6348.72"/>
  <path class="fil2 str0" d="M13844.09 4656.6c-2580.12,1015.41 -4014.63,3637.91 -4965.2,6101.81 836.17,-2661.58 2138.14,-5354.67 4782.32,-6595.63 136.36,-50.5 287.85,19.11 338.35,155.47 50.5,136.36 -19.11,287.84 -155.47,338.35zm2719.11 5916.06c2121.42,-2699.7 3453.11,-6021.23 1096.88,-8975.89 -29.59,-37.12 -59.79,-74.18 -90.57,-111.19 -39.12,-43.92 -60.64,-97.25 -65.06,-151.49 -7495.33,109.22 -13940.44,3719.53 -13884.09,12059.07 21.21,3141.12 -427.2,4739.22 -1725.27,6286.58 50.51,-41.81 102.27,-83.4 155.12,-124.74 1113.46,-871.05 2716.15,-1635.27 3459.44,-2002.38 4387.31,-2167 7865.95,-2923.41 11053.55,-6979.96z"/>
 </g>
</svg>
